<?xml version="1.0" encoding="UTF-8"?>
<svg id="_图层_2" data-name="图层 2" xmlns="http://www.w3.org/2000/svg" xmlns:xlink="http://www.w3.org/1999/xlink" viewBox="0 0 736.93 548.33">
  <defs>
    <style>
      .cls-1 {
        fill: url(#_未命名的渐变_42);
      }
    </style>
    <linearGradient id="_未命名的渐变_42" data-name="未命名的渐变 42" x1="369.86" y1="289.98" x2="361.44" y2="-98.5" gradientUnits="userSpaceOnUse">
      <stop offset=".11" stop-color="#000"/>
      <stop offset=".3" stop-color="#020202"/>
      <stop offset=".39" stop-color="#090909"/>
      <stop offset=".46" stop-color="#161616"/>
      <stop offset=".52" stop-color="#292929"/>
      <stop offset=".57" stop-color="#414141"/>
      <stop offset=".62" stop-color="#5e5e5e"/>
      <stop offset=".66" stop-color="#818181"/>
      <stop offset=".7" stop-color="#aaa"/>
      <stop offset=".74" stop-color="#d7d7d7"/>
      <stop offset=".77" stop-color="#fff"/>
    </linearGradient>
  </defs>
  <g id="_图层_1-2" data-name="图层 1">
    <g>
      <g>
        <path d="M0,434.58l25.54-73.17h16.64l26.13,73.17h-14.39l-6.24-18.12h-27.35l-5.99,18.12H0ZM23.82,405.9h20.28l-3.19-9.33c-1.08-3.37-2.21-7.1-3.37-11.2-1.16-4.09-2.43-8.68-3.8-13.75-1.31,5.11-2.52,9.73-3.63,13.87-1.11,4.14-2.18,7.83-3.19,11.08l-3.09,9.33Z"/>
        <path d="M71.46,455.11v-75.43h12.47v9.09h.84c.62-1.28,1.54-2.68,2.75-4.2,1.21-1.52,2.87-2.83,4.96-3.93,2.1-1.1,4.77-1.64,8.01-1.64,4.22,0,8.05,1.08,11.46,3.24,3.42,2.16,6.14,5.35,8.15,9.55,2.01,4.21,3.02,9.36,3.02,15.44s-.99,11.15-2.97,15.37c-1.98,4.22-4.67,7.44-8.07,9.65-3.4,2.21-7.29,3.31-11.64,3.31-3.14,0-5.75-.53-7.83-1.6-2.08-1.06-3.74-2.35-4.98-3.86-1.25-1.5-2.19-2.91-2.85-4.22h-.54v29.21h-12.76ZM97,425.05c4.25,0,7.49-1.69,9.7-5.08,2.21-3.39,3.31-7.65,3.31-12.79s-1.08-9.33-3.26-12.67c-2.18-3.34-5.43-5.01-9.75-5.01s-7.45,1.61-9.67,4.84c-2.23,3.22-3.34,7.5-3.34,12.84s1.13,9.65,3.39,12.94c2.26,3.29,5.47,4.94,9.62,4.94Z"/>
        <path d="M152.44,435.71c-5.53,0-10.29-1.16-14.26-3.48-3.98-2.33-7.04-5.6-9.18-9.82-2.15-4.22-3.22-9.2-3.22-14.93s1.05-10.58,3.17-14.85c2.11-4.27,5.1-7.61,8.99-10.02,3.88-2.4,8.44-3.61,13.68-3.61,4.45,0,8.58.98,12.4,2.92,3.81,1.95,6.88,4.96,9.21,9.04,2.33,4.07,3.49,9.32,3.49,15.73v4.03h-38.21c.16,4.88,1.53,8.59,4.1,11.14,2.57,2.56,5.9,3.83,10,3.83,2.81,0,5.22-.6,7.24-1.81,2.01-1.21,3.44-2.98,4.3-5.31l11.73,2.41c-1.31,4.42-4.02,7.98-8.12,10.68-4.11,2.7-9.21,4.05-15.3,4.05ZM138.55,402.02h25.73c-.39-3.93-1.64-7.07-3.75-9.45-2.12-2.37-5.07-3.56-8.86-3.56s-6.98,1.25-9.26,3.75c-2.28,2.51-3.56,5.59-3.86,9.26Z"/>
        <path d="M175.18,434.58l18.17-28.18-17.09-26.72h14.04l5.6,9.33c1.08,1.86,2.07,3.69,2.97,5.47.9,1.79,1.78,3.53,2.63,5.23.85-1.7,1.72-3.45,2.6-5.26.89-1.8,1.89-3.62,3-5.45l5.8-9.33h13.75l-17.38,27.01,18.22,27.89h-13.94l-6.78-11c-1.08-1.8-2.07-3.58-2.97-5.33-.9-1.75-1.78-3.46-2.63-5.13-.82,1.67-1.65,3.38-2.5,5.13-.86,1.75-1.82,3.53-2.9,5.33l-6.78,11h-13.8Z"/>
        <path d="M263.68,361.41v73.17h-13.11v-73.17h13.11Z"/>
        <path d="M284.56,402.41v32.17h-12.76v-54.9h12.08l.15,10.96c3.27-7.76,8.94-11.64,16.99-11.64,5.66,0,10.21,1.8,13.63,5.41,3.42,3.6,5.13,8.69,5.13,15.27v34.91h-12.77v-32.95c0-3.66-.95-6.54-2.84-8.64-1.9-2.1-4.52-3.15-7.86-3.15s-6.21,1.1-8.42,3.29c-2.21,2.19-3.31,5.29-3.31,9.28Z"/>
        <path d="M352.68,379.68v10.02h-10.61v29.41c0,2,.42,3.46,1.25,4.39.84.93,2.24,1.4,4.2,1.4.59,0,1.36-.08,2.31-.22.95-.14,1.74-.29,2.36-.42l2.01,9.87c-1.4.42-2.84.72-4.32.9-1.47.18-2.88.27-4.22.27-5.27,0-9.31-1.31-12.13-3.93-2.81-2.62-4.22-6.35-4.22-11.2v-30.49h-7.81v-10.02h7.81v-13.06h12.76v13.06h10.61Z"/>
        <path d="M380.03,435.71c-5.53,0-10.29-1.16-14.26-3.48-3.98-2.33-7.04-5.6-9.18-9.82-2.15-4.22-3.22-9.2-3.22-14.93s1.05-10.58,3.17-14.85c2.11-4.27,5.1-7.61,8.98-10.02,3.88-2.4,8.44-3.61,13.68-3.61,4.45,0,8.58.98,12.4,2.92,3.81,1.95,6.88,4.96,9.21,9.04,2.33,4.07,3.49,9.32,3.49,15.73v4.03h-38.21c.16,4.88,1.53,8.59,4.1,11.14,2.57,2.56,5.9,3.83,10,3.83,2.81,0,5.22-.6,7.24-1.81,2.01-1.21,3.44-2.98,4.3-5.31l11.73,2.41c-1.31,4.42-4.02,7.98-8.12,10.68-4.11,2.7-9.21,4.05-15.3,4.05ZM366.14,402.02h25.73c-.39-3.93-1.64-7.07-3.75-9.45-2.11-2.37-5.07-3.56-8.86-3.56s-6.98,1.25-9.26,3.75c-2.28,2.51-3.56,5.59-3.86,9.26Z"/>
        <path d="M421.98,361.41v73.17h-12.76v-73.17h12.76Z"/>
        <path d="M442.26,361.41v73.17h-12.76v-73.17h12.76Z"/>
        <path d="M456.17,371.92c-2.03,0-3.77-.68-5.23-2.04-1.46-1.36-2.19-3.02-2.19-4.98s.73-3.58,2.19-4.94c1.46-1.36,3.2-2.04,5.23-2.04s3.82.68,5.28,2.04c1.46,1.36,2.19,3,2.19,4.94s-.73,3.62-2.19,4.98c-1.46,1.36-3.22,2.04-5.28,2.04ZM449.79,434.58v-54.9h12.76v54.9h-12.76Z"/>
        <path d="M493.73,456.29c-6.61,0-11.91-1.21-15.91-3.63-3.99-2.42-6.68-5.45-8.05-9.09l10.8-3.88c.86,1.57,2.25,3.12,4.2,4.62,1.95,1.51,4.92,2.26,8.91,2.26s7.13-.92,9.53-2.77c2.39-1.85,3.59-4.74,3.59-8.67v-10.36h-1.08c-.66,1.31-1.59,2.67-2.8,4.08-1.21,1.4-2.83,2.57-4.86,3.51-2.03.93-4.63,1.4-7.8,1.4-4.19,0-8-.99-11.42-2.97-3.42-1.98-6.13-4.95-8.15-8.91-2.01-3.96-3.02-8.92-3.02-14.88s1.01-11.07,3.02-15.25c2.02-4.18,4.74-7.34,8.18-9.5,3.44-2.16,7.27-3.24,11.49-3.24,3.24,0,5.91.54,8,1.62,2.1,1.08,3.77,2.39,5.01,3.9,1.24,1.52,2.19,2.94,2.84,4.25h.69v-9.09h12.52v55.05c0,4.91-1.11,8.95-3.34,12.13-2.22,3.18-5.27,5.54-9.14,7.1-3.86,1.55-8.26,2.33-13.21,2.33ZM493.84,423.68c4.15,0,7.36-1.49,9.62-4.47,2.26-2.98,3.39-7.09,3.39-12.32s-1.12-9.41-3.34-12.59c-2.23-3.19-5.45-4.79-9.67-4.79s-7.59,1.66-9.8,4.96c-2.21,3.31-3.31,7.45-3.31,12.43s1.11,9.14,3.34,12.2c2.22,3.06,5.48,4.59,9.77,4.59Z"/>
        <path d="M551.2,435.71c-5.53,0-10.29-1.16-14.26-3.48-3.98-2.33-7.04-5.6-9.18-9.82-2.14-4.22-3.22-9.2-3.22-14.93s1.05-10.58,3.17-14.85c2.11-4.27,5.1-7.61,8.99-10.02,3.88-2.4,8.44-3.61,13.68-3.61,4.45,0,8.58.98,12.4,2.92,3.81,1.95,6.88,4.96,9.21,9.04,2.33,4.07,3.49,9.32,3.49,15.73v4.03h-38.21c.16,4.88,1.53,8.59,4.1,11.14,2.57,2.56,5.9,3.83,10,3.83,2.81,0,5.22-.6,7.24-1.81,2.01-1.21,3.44-2.98,4.3-5.31l11.73,2.41c-1.31,4.42-4.02,7.98-8.12,10.68-4.11,2.7-9.21,4.05-15.3,4.05ZM537.3,402.02h25.73c-.39-3.93-1.64-7.07-3.75-9.45-2.12-2.37-5.07-3.56-8.86-3.56s-6.98,1.25-9.26,3.75c-2.28,2.51-3.56,5.59-3.86,9.26Z"/>
        <path d="M593.14,402.41v32.17h-12.76v-54.9h12.08l.15,10.96c3.27-7.76,8.94-11.64,16.99-11.64,5.66,0,10.21,1.8,13.63,5.41,3.42,3.6,5.13,8.69,5.13,15.27v34.91h-12.77v-32.95c0-3.66-.95-6.54-2.84-8.64-1.9-2.1-4.52-3.15-7.86-3.15s-6.21,1.1-8.42,3.29c-2.21,2.19-3.31,5.29-3.31,9.28Z"/>
        <path d="M659.69,435.71c-5.34,0-9.97-1.18-13.9-3.56-3.93-2.37-6.97-5.68-9.11-9.92-2.14-4.24-3.22-9.18-3.22-14.81s1.07-10.68,3.22-14.96c2.15-4.27,5.18-7.59,9.11-9.94,3.93-2.36,8.56-3.54,13.9-3.54,6.12,0,11.3,1.53,15.54,4.59,4.24,3.06,6.95,7.28,8.13,12.65l-11.94,2.5c-.69-2.84-2.03-5.12-4.03-6.82-1.99-1.7-4.53-2.55-7.61-2.55-4.45,0-7.79,1.72-9.99,5.15-2.21,3.44-3.31,7.73-3.31,12.87,0,3.37.49,6.42,1.47,9.14.98,2.72,2.46,4.87,4.42,6.46,1.96,1.58,4.43,2.38,7.41,2.38,3.15,0,5.72-.89,7.74-2.68,2.01-1.78,3.36-4.15,4.05-7.1l11.93,2.51c-1.18,5.47-3.9,9.77-8.15,12.91-4.25,3.15-9.47,4.71-15.66,4.71Z"/>
        <path d="M712.67,435.71c-5.53,0-10.29-1.16-14.26-3.48-3.98-2.33-7.04-5.6-9.18-9.82-2.14-4.22-3.22-9.2-3.22-14.93s1.05-10.58,3.17-14.85c2.11-4.27,5.1-7.61,8.99-10.02,3.88-2.4,8.44-3.61,13.68-3.61,4.45,0,8.58.98,12.4,2.92,3.81,1.95,6.88,4.96,9.21,9.04,2.33,4.07,3.49,9.32,3.49,15.73v4.03h-38.2c.16,4.88,1.53,8.59,4.1,11.14,2.57,2.56,5.9,3.83,10,3.83,2.81,0,5.22-.6,7.24-1.81,2.01-1.21,3.44-2.98,4.3-5.31l11.73,2.41c-1.31,4.42-4.02,7.98-8.12,10.68-4.11,2.7-9.21,4.05-15.3,4.05ZM698.78,402.02h25.73c-.39-3.93-1.64-7.07-3.75-9.45-2.12-2.37-5.07-3.56-8.86-3.56s-6.98,1.25-9.26,3.75c-2.28,2.51-3.56,5.59-3.86,9.26Z"/>
      </g>
      <g>
        <path d="M167.78,517.84c-.05,5.56-.54,10.94-1.48,16.13-.94,5.19-2.34,9.93-4.21,14.22-.1.1-.19.12-.3.07l-4.87-2.07c-.1-.05-.13-.13-.07-.22,1.77-3.98,3.09-8.34,3.95-13.06.86-4.72,1.29-9.72,1.29-14.99-.05-.2.02-.29.22-.29h5.17c.14,0,.24.07.3.22ZM187.2,505.59v5.46c0,.1-.05.15-.15.15h-27.46c-.1,0-.15-.05-.15-.15v-5.46c0-.1.05-.15.15-.15h27.46c.1,0,.15.05.15.15ZM186.39,488.47v5.46c0,.1-.07.15-.22.15h-25.62c-.1,0-.14-.05-.14-.15v-5.46c0-.1.05-.15.14-.15h25.62c.15,0,.22.05.22.15ZM166.38,528.99c3.15,4.53,6.83,7.72,11.03,9.56,4.21,1.84,9.09,2.77,14.66,2.77h33.74c.14,0,.22.08.22.22v5.47c0,.14-.08.22-.22.22h-33.74c-6.25,0-11.97-1.15-17.16-3.43-5.19-2.29-9.68-6.12-13.47-11.48-.05-.1-.02-.2.07-.3l4.58-3.1c.1-.1.19-.07.29.07ZM176.42,481.45v26.65c0,.15-.07.22-.22.22h-5.46c-.15,0-.22-.07-.22-.22v-26.65c0-.15.07-.22.22-.22h5.46c.15,0,.22.07.22.22ZM178.64,508.47v32.34c0,.1-.08.14-.22.14h-5.47c-.14,0-.22-.07-.22-.22v-32.19c0-.15.08-.22.22-.22h5.47c.14,0,.22.05.22.15ZM187.2,521.61v5.47c0,.1-.05.14-.15.14h-11.22c-.1,0-.14-.05-.14-.14v-5.47c0-.1.05-.14.14-.14h11.22c.1,0,.15.05.15.14ZM205.95,485.95c-.1,4.38-1.2,8.53-3.32,12.44-2.12,3.92-5.16,7.42-9.15,10.52-.14.05-.27.02-.37-.07l-3.25-4.28c-.1-.05-.08-.12.07-.22,3.4-2.66,5.95-5.53,7.68-8.6,1.72-3.07,2.58-6.29,2.58-9.63,0-.1.01-.17.04-.22s.06-.07.11-.07h5.39c.14,0,.22.05.22.14ZM223.12,483s.04.1.04.14v24.22c0,.1-.01.16-.04.18-.02.03-.07.04-.11.04h-12.18c-.15,0-.22-.08-.22-.22v-5.31c0-.1.07-.15.22-.15h6.57v-13.22h-26.06c-.15,0-.22-.07-.22-.22v-5.32c0-.14.07-.22.22-.22h31.67s.09.02.11.07ZM192.29,512.31h30.79c.14,0,.22.07.22.22v22.66c0,.15-.07.22-.22.22h-30.79c-.15,0-.22-.07-.22-.22v-22.66c0-.14.07-.22.22-.22ZM217.54,517.92h-19.71v11.88h19.71v-11.88Z"/>
        <path d="M295.72,503.16c-5.41,8.02-10.85,15.16-16.31,21.4-.15.15-.27.17-.37.08l-4.06-3.84c-.1-.1-.1-.19,0-.3,5.12-5.85,10.43-12.79,15.94-20.81.1-.15.19-.17.3-.08l4.43,3.25c.14.1.17.19.07.3ZM295.06,483.96c-4.63,6.65-9.6,12.82-14.91,18.53-.14.05-.25.07-.3.07l-3.91-4.13c-.1-.05-.1-.12,0-.22,4.87-5.36,9.64-11.3,14.32-17.8.05-.14.15-.19.3-.14l4.44,3.39c.1.05.12.15.07.3ZM290.11,516.29v31.75c0,.2-.07.3-.22.3h-5.61c-.2,0-.3-.1-.3-.3v-31.75c0-.14.1-.22.3-.22h5.61c.15,0,.22.08.22.22ZM312.04,520.28c-1.08,4.68-2.36,9.26-3.8,13.77-1.45,4.5-3.07,8.92-4.84,13.25-.1.14-.2.19-.3.14l-5.16-2.07c-.15-.05-.17-.14-.08-.3,3.4-8.47,6.18-17.2,8.35-26.21l.11-.11s.06-.04.11-.04l5.47,1.33c.1.05.15.12.15.22ZM306.35,481.37l4.28,13.73c0,.15-.08.25-.22.3l-5.31,1.4c-.1.05-.17,0-.22-.15l-4.28-13.81c0-.14.07-.24.22-.29l5.31-1.33c.15-.05.22,0,.22.14ZM306.35,500.05l4.28,13.73c0,.14-.08.25-.22.3l-5.31,1.4c-.1.05-.17,0-.22-.14l-4.28-13.81c0-.15.07-.25.22-.3l5.31-1.33c.15-.05.22,0,.22.15ZM344.6,505.96v5.47c0,.14-.07.22-.22.22h-27.76c-.14,0-.22-.07-.22-.22v-5.47c0-.14.08-.22.22-.22h27.76c.15,0,.22.08.22.22ZM343.12,483.96v5.47c0,.14-.07.22-.22.22h-24.51c-.14,0-.22-.08-.22-.22v-5.47c0-.14.08-.22.22-.22h24.51c.15,0,.22.08.22.22ZM338.91,508.91v38.46s-.01.1-.04.14-.09.08-.19.08h-13.58c-.15,0-.22-.08-.22-.22v-5.61c0-.15.07-.22.22-.22h7.68v-32.63c0-.14.1-.22.3-.22h5.61c.15,0,.22.08.22.22Z"/>
        <path d="M429.94,497.03v5.02c0,.14-.07.22-.22.22h-34.7c-.14,0-.22-.07-.22-.22v-5.02c0-.15.08-.22.22-.22h34.7c.15,0,.22.07.22.22ZM416.27,486.99c0,6.94-1.46,12.96-4.39,18.05-2.93,5.09-7.74,9.02-14.43,11.78-.1.05-.17.06-.22.04-.05-.02-.08-.08-.08-.19l-2.07-5.16c-.1-.1-.07-.17.08-.22,5.56-2.26,9.47-5.36,11.73-9.3,2.27-3.94,3.4-8.88,3.4-14.84,0-.19.07-.3.22-.3h5.61c.1,0,.14.05.14.15ZM402.84,481.08v3.03h25.91c.14,0,.22.07.22.22v5.02c0,.14-.07.22-.22.22h-31.82c-.1,0-.16-.02-.19-.07s-.04-.1-.04-.14v-8.27c0-.14.1-.22.3-.22h5.61c.14,0,.22.07.22.22ZM401.14,517.63h54.48c.15,0,.22.07.22.22v29.46c0,.14-.07.22-.22.22h-54.48c-.15,0-.22-.07-.22-.22v-29.46c0-.14.07-.22.22-.22ZM452.82,530.03v5.02c0,.1-.05.14-.15.14h-48.58c-.1,0-.15-.05-.15-.14v-5.02c0-.15.05-.22.15-.22h48.58c.1,0,.15.07.15.22ZM449.79,523.16h-42.82v18.83h42.82v-18.83ZM418.75,498.5s.06.12.11.22c.93,3.01,2.34,5.5,4.21,7.5,1.87,1.99,4.41,3.68,7.61,5.06.15.05.17.15.08.3l-2.22,5.02c-.05.15-.15.2-.3.15-3.89-1.63-7.11-3.81-9.67-6.57-2.56-2.75-4.38-6.03-5.46-9.82-.05-.1-.03-.2.07-.29l5.46-1.48c.05-.1.09-.12.11-.07ZM433.26,483.52h26.13c.14,0,.22.05.22.14v28.2c0,.15-.08.22-.22.22h-26.13c-.14,0-.22-.07-.22-.22v-28.2c0-.1.08-.14.22-.14ZM453.63,489.5h-14.61v16.61h14.61v-16.61Z"/>
        <path d="M531.6,483.37l-9.38,11.81h18.9v-5.75c0-.15.07-.22.22-.22h5.16c.15,0,.22.07.22.22v11.22s-.05.1-.14.14h-35.14c-.14,0-.22-.02-.22-.07s.02-.07.07-.07l15.72-20.52c.15-.1.27-.1.37,0l4.21,2.95c.14.15.14.25,0,.3ZM545.47,506.7v41.04c0,.2-.07.29-.22.29h-11.22c-.14,0-.22-.1-.22-.29v-5.16c0-.15.08-.22.22-.22h5.68v-30.27h-18.38v35.95c0,.15-.07.22-.22.22h-5.31c-.14,0-.22-.07-.22-.22v-41.34c0-.15.08-.22.22-.22h29.46c.15,0,.22.07.22.22ZM542.45,518.73v5.17c0,.15-.08.22-.22.22h-23.41c-.14,0-.22-.07-.22-.22v-5.17c0-.14.07-.22.22-.22h23.41c.14,0,.22.07.22.22ZM542.45,530.91v5.16c0,.15-.08.22-.22.22h-23.41c-.14,0-.22-.07-.22-.22v-5.16c0-.2.07-.3.22-.3h23.41c.14,0,.22.1.22.3ZM558.1,481.45v24.88h15.94v-5.68c0-.15.07-.22.22-.22h5.46c.15,0,.22.07.22.22v11.44c0,.1-.01.16-.04.18-.02.03-.08.04-.19.04h-27.31c-.1,0-.16-.01-.19-.04-.02-.02-.04-.08-.04-.18v-30.64c0-.15.07-.22.22-.22h5.46c.15,0,.22.07.22.22ZM558.1,514.89v26.65h15.94v-6.2c0-.15.07-.22.22-.22h5.46c.15,0,.22.07.22.22v11.96c0,.1-.01.16-.04.18s-.08.04-.19.04h-27.31c-.1,0-.16-.02-.19-.07s-.04-.1-.04-.14v-32.41c0-.14.07-.22.22-.22h5.46c.15,0,.22.07.22.22ZM575.93,485.43c.02.05.06.08.11.08l2.66,4.87c.05.1.02.17-.07.22-2.51,1.38-5.15,2.58-7.9,3.62-2.76,1.04-5.56,1.9-8.42,2.58-.05.1-.08.12-.11.07s-.07-.1-.11-.14l-1.33-5.31c-.05-.15,0-.22.14-.22,5.66-1.53,10.64-3.42,14.91-5.68.05-.1.08-.13.11-.08ZM576.48,519.25l2.66,4.87c.05.1,0,.17-.14.22-4.87,2.9-10.44,5.14-16.69,6.71-.05.05-.08.05-.11,0-.02-.05-.07-.1-.11-.14l-1.33-5.31c-.05-.15,0-.22.14-.22,5.56-1.43,10.64-3.5,15.21-6.2.15-.05.27-.02.37.07Z"/>
      </g>
      <path class="cls-1" d="M495.69,228.51c-15.15,11.29-30.07,13.56-47.52,6.01-19.45-8.41-40.05-22.44-58.71-32.69l-81.51-145.22c-5.04-6.72-13.74-10.84-22.17-9.91,15.03-24.63,28.74-52.77,63.32-45.3,16.47,3.56,23.44,12.94,31.74,26.26,37.25,59.75,73.43,125.59,108.1,187.19,1.22,2.16,7.5,12.39,6.76,13.66ZM278.89,61.36c-31.52,56.27-65.69,111.16-96.98,167.55-4.63,8.35-12.01,19.25-13.69,28.5-6.23,34.42,29.2,63.02,61.61,48.43,5.09-2.29,9.28-6.15,14.26-8.65-2.25-9.27-2.48-18.79,2.55-27.27l89.75-144.09-.6-2.97-36.25-63.54c-6.51-5.6-15.64-5.24-20.65,2.06ZM292.8,210.61l-40.32,64.26c-2.44,5.85-4.2,13.17-.53,18.78,32.25-15.03,56.96-37.82,94.93-35.19,30.29,2.1,69.8,31.96,97.94,45.31,13.9,6.6,27.55,8.71,41.92,1.45,26.71-13.49,32.19-47.29,13.49-70.08-.85-.4-9.58,5.86-11.72,6.82-14,6.31-29.16,5.69-43.11-.29-37.58-16.12-72.69-50.59-115.87-46.19-12.85,1.31-26.46,7.49-36.72,15.13ZM389.47.13c6.94,9.55,12.65,19.96,18.61,30.17,36.26,62.13,73.17,124.33,108.1,187.19,14.56,26.2,25.08,46.85,10.82,77.04l-9.21,14.95h17.14c.7,0,5.95-1.99,7.19-2.48,23.43-9.12,35.97-36.35,25.06-59.65L434.14,17.41c-7.4-9.61-19.85-16.12-31.93-17.29-4.07-.39-8.61.28-12.74,0Z"/>
    </g>
  </g>
</svg>